<svg width="200" height="244" viewBox="0 0 200 244" fill="none" xmlns="http://www.w3.org/2000/svg">
<rect opacity="0.100655" y="52.4482" width="200" height="191.551" rx="24" fill="white"/>
<path fill-rule="evenodd" clip-rule="evenodd" d="M29.7617 134.655V107.764C29.7617 103.033 39.7707 99.1963 52.1113 99.1963H102.65C114.995 99.1963 125 103.033 125 107.764V135.682L29.7617 134.655Z" fill="#B0D4FF"/>
<path fill-rule="evenodd" clip-rule="evenodd" d="M100.477 3.76454C94.5032 0.747071 85.4108 0.339124 83.9359 0.148499C66.263 -2.13484 55.6263 22.556 55.0016 30.0391C53.8477 43.8293 46.2606 45.9315 35.5849 54.566C14.1727 71.885 20.4497 92.007 32.1579 99.4819C39.1854 103.97 51.566 99.4819 51.566 99.4819C51.7395 99.5986 85.4281 81.3745 102.034 72.5816C126.929 69.1778 115.698 11.4521 100.477 3.76454Z" fill="#233862"/>
<path fill-rule="evenodd" clip-rule="evenodd" d="M74.5756 65.1876C69.354 63.0078 65.4029 54.9067 65.4771 54.9026C67.8521 54.7996 71.3482 51.6228 73.3565 38.7666L73.8094 39.0725L90.4761 46.1011C90.4761 46.1011 89.2449 51.2477 88.4459 56.147C87.778 60.2635 87.4156 64.2069 88.3455 64.7879C88.4197 64.8332 80.1202 67.5033 74.5756 65.1876Z" fill="#FFB27D"/>
<path fill-rule="evenodd" clip-rule="evenodd" d="M90.476 45.7316C90.476 45.7316 89.2687 50.925 88.4852 55.8689C78.9125 54.1973 75.1536 44.9333 73.8093 39.9062L90.476 45.7316Z" fill="#ED975D"/>
<path fill-rule="evenodd" clip-rule="evenodd" d="M93.9566 50.1631C93.9566 50.1631 70.5859 47.2015 72.7619 33.5101C74.938 19.8188 73.3893 10.2142 88.4023 11.5213C103.415 12.8325 105.477 18.4662 105.929 23.2023C106.381 27.9385 100.09 50.5767 93.9566 50.1631Z" fill="#FFB27D"/>
<path fill-rule="evenodd" clip-rule="evenodd" d="M104.762 17.0697C104.762 17.0697 90.2098 29.5783 80.3137 30.5873C70.4133 31.5963 66.6665 28.4245 66.6665 28.4245C66.6665 28.4245 72.5001 23.5922 76.0121 15.7925C77.0449 13.4934 79.234 11.9182 81.7518 11.701C88.8187 11.0922 102.214 10.8155 104.762 17.0697Z" fill="#233862"/>
<path fill-rule="evenodd" clip-rule="evenodd" d="M95.238 15.2118C95.238 15.2118 100.166 19.8337 101.723 23.2615C103.218 26.5719 103.668 34.4833 102.475 37.6261C102.475 37.6261 110.161 23.1441 105.808 16.1085C101.195 8.64543 95.238 15.2118 95.238 15.2118Z" fill="#233862"/>
<path fill-rule="evenodd" clip-rule="evenodd" d="M103.033 137.001C101.799 138.011 98.3387 138.615 93.7875 138.898C79.4669 139.801 54.2986 137.564 53.3416 135.055C50.0375 126.376 52.3716 123.679 49.6175 110.389C49.3273 108.977 48.9722 107.446 48.5565 105.779C46.2571 96.6525 44.0226 93.5488 52.1724 78.884C59.5644 65.6027 66.6814 54.3483 67.3742 54.7384C86.874 65.7123 88.3064 57.6952 88.3064 57.6952C88.3064 57.6952 108.671 76.1866 108.329 97.7815C107.632 142.051 108.138 132.797 103.033 137.001Z" fill="white"/>
<path fill-rule="evenodd" clip-rule="evenodd" d="M54.7409 135.069C51.4053 126.256 52.7804 122.357 50 108.862L57.6147 91.2148C57.6147 91.2148 56.4649 112.065 62.9089 117.548C69.3529 123.03 89.3056 128.133 92.4402 132.715C93.9528 134.917 94.9496 137.118 95.2381 138.89C80.7807 139.807 55.7071 137.617 54.7409 135.069Z" fill="#EBF3FF"/>
<path fill-rule="evenodd" clip-rule="evenodd" d="M77.3809 129.999C77.3809 129.999 91.5011 126.696 93.778 128.01C96.0548 129.33 101.622 134.126 102.323 135.795C103.02 137.465 97.2496 134.526 95.3709 133.998C94.1589 133.657 90.9556 134.822 89.3757 135.377C82.7095 137.715 78.6275 136.514 78.6275 136.514L77.3809 129.999Z" fill="#FFB27D"/>
<path fill-rule="evenodd" clip-rule="evenodd" d="M42.72 63.8378C33.5322 76.0454 15.3113 128.066 25.7558 135.009C37.5172 142.82 79.278 137.051 79.278 137.051C79.278 137.051 80.668 130.863 78.7357 127.865C76.7992 124.872 45.3796 120.037 43.9293 118.655C42.4791 117.273 62.0555 91.7058 62.0555 87.56C62.0555 83.4143 67.3741 54.7285 67.3741 54.7285C67.3741 54.7285 49.2441 55.1649 42.72 63.8378Z" fill="white"/>
<path fill-rule="evenodd" clip-rule="evenodd" d="M94.0476 132.262C94.0476 132.262 97.2337 136.025 98.2786 136.473C99.3236 136.921 100 136.81 100 136.81L97.8541 133.273L94.0476 132.262Z" fill="#FFB27D"/>
<path fill-rule="evenodd" clip-rule="evenodd" d="M92.8569 128.841L102.381 132.869C102.381 132.869 101.973 133.445 100.804 133.399C99.6295 133.353 96.6722 132.41 96.6722 132.41L92.8569 128.841Z" fill="#FFB27D"/>
<path fill-rule="evenodd" clip-rule="evenodd" d="M98.8093 141.384H166.531L186.905 92.3555H119.286L98.8093 141.384Z" fill="#E89BEE"/>
<path fill-rule="evenodd" clip-rule="evenodd" d="M166.667 139.103H77.3809V141.383H165.875L166.667 139.103Z" fill="#E6B137"/>
<path fill-rule="evenodd" clip-rule="evenodd" d="M148.669 116.867C149.215 115.294 148.119 114.019 146.221 114.019C144.327 114.019 142.35 115.294 141.805 116.867C141.264 118.44 142.36 119.719 144.253 119.719C146.152 119.719 148.128 118.44 148.669 116.867Z" fill="white"/>
<g filter="url(#filter0_d_105_2081)">
<rect x="22.6191" y="159.626" width="153.571" height="54.729" rx="14" fill="#E89BEE"/>
</g>
<path fill-rule="evenodd" clip-rule="evenodd" d="M57.2822 174.448H56.687C54.9312 174.444 53.1963 174.838 51.6265 175.597C47.7999 177.429 45.3791 181.178 45.3775 185.28L45.385 185.7C45.4333 186.958 45.7138 188.198 46.2123 189.363L46.3382 189.641L45.5104 191.555C45.1379 192.416 45.1482 193.385 45.5391 194.238L45.629 194.42C46.4815 196.023 48.5026 196.729 50.2444 195.997L52.1465 195.196L52.4245 195.312C53.7753 195.843 55.2245 196.116 56.6901 196.112C60.9703 196.11 64.8848 193.792 66.7995 190.123C67.5902 188.623 68.0011 186.962 67.9966 185.277L67.9966 184.71C67.6837 179.249 63.26 174.917 57.6657 174.471L57.2822 174.448ZM56.684 176.729L57.2322 176.728L57.2166 176.727C61.7486 176.966 65.3674 180.432 65.6174 184.773L65.6156 185.28C65.6192 186.608 65.2959 187.916 64.672 189.099C63.1581 192 60.0677 193.83 56.6865 193.832C55.3001 193.835 53.9351 193.525 52.6999 192.928C52.3827 192.774 52.0104 192.765 51.685 192.901L49.2879 193.908C48.6858 194.161 47.9836 193.899 47.7195 193.322C47.5892 193.038 47.5858 192.715 47.7099 192.428L48.7391 190.049C48.872 189.742 48.8584 189.395 48.702 189.099C48.0781 187.916 47.7548 186.608 47.7584 185.283C47.7597 182.042 49.6709 179.082 52.6954 177.635C53.935 177.035 55.3001 176.725 56.684 176.729Z" fill="white"/>
<path d="M81.026 191.626V180.346H82.738L86.994 188.202H86.482L90.722 180.346H92.402V191.626H90.546V183.386H90.898L87.314 189.914H86.114L82.498 183.37H82.882V191.626H81.026ZM97.2686 191.786C96.7033 191.786 96.1966 191.679 95.7486 191.466C95.3113 191.242 94.9646 190.943 94.7086 190.57C94.4633 190.197 94.3406 189.775 94.3406 189.306C94.3406 188.73 94.4899 188.277 94.7886 187.946C95.0873 187.605 95.5726 187.359 96.2446 187.21C96.9166 187.061 97.8179 186.986 98.9486 186.986H99.7486V188.138H98.9646C98.4633 188.138 98.0419 188.159 97.7006 188.202C97.3593 188.234 97.0819 188.293 96.8686 188.378C96.6659 188.453 96.5166 188.559 96.4206 188.698C96.3353 188.837 96.2926 189.007 96.2926 189.21C96.2926 189.562 96.4153 189.85 96.6606 190.074C96.9059 190.298 97.2473 190.41 97.6846 190.41C98.0366 190.41 98.3459 190.33 98.6126 190.17C98.8899 189.999 99.1086 189.77 99.2686 189.482C99.4286 189.194 99.5086 188.863 99.5086 188.49V186.65C99.5086 186.117 99.3913 185.733 99.1566 185.498C98.9219 185.263 98.5273 185.146 97.9726 185.146C97.5353 185.146 97.0873 185.215 96.6286 185.354C96.1699 185.482 95.7059 185.685 95.2366 185.962L94.6606 184.602C94.9379 184.41 95.2633 184.245 95.6366 184.106C96.0206 183.957 96.4206 183.845 96.8366 183.77C97.2633 183.685 97.6633 183.642 98.0366 183.642C98.8046 183.642 99.4339 183.759 99.9246 183.994C100.426 184.229 100.799 184.586 101.045 185.066C101.29 185.535 101.413 186.143 101.413 186.89V191.626H99.5406V189.962H99.6686C99.5939 190.335 99.4446 190.661 99.2206 190.938C99.0073 191.205 98.7353 191.413 98.4046 191.562C98.0739 191.711 97.6953 191.786 97.2686 191.786ZM103.443 191.626V183.802H105.395V185.37H105.219C105.453 184.805 105.816 184.378 106.307 184.09C106.808 183.791 107.373 183.642 108.003 183.642C108.632 183.642 109.149 183.759 109.555 183.994C109.96 184.229 110.264 184.586 110.467 185.066C110.669 185.535 110.771 186.133 110.771 186.858V191.626H108.771V186.954C108.771 186.549 108.717 186.218 108.611 185.962C108.515 185.706 108.36 185.519 108.147 185.402C107.944 185.274 107.683 185.21 107.363 185.21C106.979 185.21 106.643 185.295 106.355 185.466C106.067 185.626 105.843 185.861 105.683 186.17C105.523 186.469 105.443 186.821 105.443 187.226V191.626H103.443ZM115.378 191.786C114.813 191.786 114.306 191.679 113.858 191.466C113.421 191.242 113.074 190.943 112.818 190.57C112.573 190.197 112.45 189.775 112.45 189.306C112.45 188.73 112.599 188.277 112.898 187.946C113.197 187.605 113.682 187.359 114.354 187.21C115.026 187.061 115.927 186.986 117.058 186.986H117.858V188.138H117.074C116.573 188.138 116.151 188.159 115.81 188.202C115.469 188.234 115.191 188.293 114.978 188.378C114.775 188.453 114.626 188.559 114.53 188.698C114.445 188.837 114.402 189.007 114.402 189.21C114.402 189.562 114.525 189.85 114.77 190.074C115.015 190.298 115.357 190.41 115.794 190.41C116.146 190.41 116.455 190.33 116.722 190.17C116.999 189.999 117.218 189.77 117.378 189.482C117.538 189.194 117.618 188.863 117.618 188.49V186.65C117.618 186.117 117.501 185.733 117.266 185.498C117.031 185.263 116.637 185.146 116.082 185.146C115.645 185.146 115.197 185.215 114.738 185.354C114.279 185.482 113.815 185.685 113.346 185.962L112.77 184.602C113.047 184.41 113.373 184.245 113.746 184.106C114.13 183.957 114.53 183.845 114.946 183.77C115.373 183.685 115.773 183.642 116.146 183.642C116.914 183.642 117.543 183.759 118.034 183.994C118.535 184.229 118.909 184.586 119.154 185.066C119.399 185.535 119.522 186.143 119.522 186.89V191.626H117.65V189.962H117.778C117.703 190.335 117.554 190.661 117.33 190.938C117.117 191.205 116.845 191.413 116.514 191.562C116.183 191.711 115.805 191.786 115.378 191.786ZM125.2 194.666C124.475 194.666 123.792 194.581 123.152 194.41C122.523 194.25 121.968 193.999 121.488 193.658L122.064 192.266C122.363 192.458 122.677 192.618 123.008 192.746C123.339 192.885 123.675 192.986 124.016 193.05C124.357 193.114 124.699 193.146 125.04 193.146C125.755 193.146 126.288 192.97 126.64 192.618C127.003 192.277 127.184 191.765 127.184 191.082V189.642H127.328C127.168 190.186 126.832 190.623 126.32 190.954C125.819 191.274 125.248 191.434 124.608 191.434C123.904 191.434 123.291 191.274 122.768 190.954C122.245 190.623 121.84 190.165 121.552 189.578C121.264 188.991 121.12 188.309 121.12 187.53C121.12 186.751 121.264 186.074 121.552 185.498C121.84 184.911 122.245 184.458 122.768 184.138C123.291 183.807 123.904 183.642 124.608 183.642C125.269 183.642 125.845 183.807 126.336 184.138C126.837 184.458 127.163 184.885 127.312 185.418H127.184V183.802H129.136V190.842C129.136 191.685 128.987 192.389 128.688 192.954C128.389 193.53 127.947 193.957 127.36 194.234C126.773 194.522 126.053 194.666 125.2 194.666ZM125.152 189.914C125.771 189.914 126.261 189.701 126.624 189.274C126.987 188.847 127.168 188.266 127.168 187.53C127.168 186.794 126.987 186.218 126.624 185.802C126.261 185.375 125.771 185.162 125.152 185.162C124.533 185.162 124.043 185.375 123.68 185.802C123.317 186.218 123.136 186.794 123.136 187.53C123.136 188.266 123.317 188.847 123.68 189.274C124.043 189.701 124.533 189.914 125.152 189.914ZM135.064 191.786C134.179 191.786 133.416 191.621 132.776 191.29C132.136 190.959 131.64 190.49 131.288 189.882C130.947 189.274 130.776 188.554 130.776 187.722C130.776 186.911 130.942 186.202 131.272 185.594C131.614 184.986 132.078 184.511 132.664 184.17C133.262 183.818 133.939 183.642 134.696 183.642C135.443 183.642 136.083 183.802 136.616 184.122C137.15 184.442 137.56 184.895 137.848 185.482C138.147 186.069 138.296 186.767 138.296 187.578V188.17H132.392V187.018H136.888L136.632 187.258C136.632 186.533 136.472 185.978 136.152 185.594C135.832 185.199 135.374 185.002 134.776 185.002C134.328 185.002 133.944 185.109 133.624 185.322C133.315 185.525 133.075 185.818 132.904 186.202C132.744 186.575 132.664 187.023 132.664 187.546V187.658C132.664 188.245 132.755 188.73 132.936 189.114C133.118 189.498 133.39 189.786 133.752 189.978C134.115 190.17 134.563 190.266 135.096 190.266C135.534 190.266 135.971 190.202 136.408 190.074C136.846 189.935 137.246 189.722 137.608 189.434L138.168 190.778C137.795 191.087 137.326 191.333 136.76 191.514C136.195 191.695 135.63 191.786 135.064 191.786ZM139.88 191.626V183.802H141.832V185.69H141.672C141.821 185.05 142.115 184.565 142.552 184.234C142.989 183.893 143.571 183.695 144.296 183.642L144.904 183.594L145.032 185.29L143.88 185.402C143.229 185.466 142.739 185.669 142.408 186.01C142.077 186.341 141.912 186.81 141.912 187.418V191.626H139.88Z" fill="white"/>
<defs>
<filter id="filter0_d_105_2081" x="10.6191" y="153.626" width="177.572" height="78.7285" filterUnits="userSpaceOnUse" color-interpolation-filters="sRGB">
<feFlood flood-opacity="0" result="BackgroundImageFix"/>
<feColorMatrix in="SourceAlpha" type="matrix" values="0 0 0 0 0 0 0 0 0 0 0 0 0 0 0 0 0 0 127 0" result="hardAlpha"/>
<feOffset dy="6"/>
<feGaussianBlur stdDeviation="6"/>
<feColorMatrix type="matrix" values="0 0 0 0 0.247059 0 0 0 0 0.54902 0 0 0 0 1 0 0 0 0.263686 0"/>
<feBlend mode="normal" in2="BackgroundImageFix" result="effect1_dropShadow_105_2081"/>
<feBlend mode="normal" in="SourceGraphic" in2="effect1_dropShadow_105_2081" result="shape"/>
</filter>
</defs>
</svg>
